<mxfile host="app.diagrams.net" modified="2023-05-27T16:46:05.652Z" agent="Mozilla/5.0 (Windows NT 10.0; Win64; x64) AppleWebKit/537.36 (KHTML, like Gecko) Chrome/113.0.0.0 Safari/537.36 Edg/113.0.1774.50" version="21.1.5" etag="A-YOfK4buMa1Iu9oALOw" type="device">
  <diagram id="tYm6h5E-o5u0tox6z2JP" name="PÃ¡gina-1">
    <mxGraphModel dx="3865" dy="2770" grid="1" gridSize="10" guides="1" tooltips="1" connect="1" arrows="1" fold="1" page="0" pageScale="1" pageWidth="827" pageHeight="1169" background="none" math="0" shadow="0">
      <root>
        <mxCell id="0" />
        <mxCell id="1" parent="0" />
        <mxCell id="node9" value="&lt;p style=&quot;margin:0px;margin-top:4px;text-align:center;&quot;&gt;&lt;i&gt;&amp;lt;&amp;lt;interface&amp;gt;&amp;gt;&lt;/i&gt;&lt;br/&gt;&lt;b&gt;Advertisable&lt;/b&gt;&lt;/p&gt;&lt;hr size=&quot;1&quot;/&gt;&lt;p style=&quot;margin:0 0 0 4px;line-height:1.6;&quot;&gt;+ showAds(): String&lt;/p&gt;" style="verticalAlign=top;align=left;overflow=fill;fontSize=14;fontFamily=Helvetica;html=1;rounded=0;shadow=0;comic=0;labelBackgroundColor=none;strokeWidth=1;sketch=1;curveFitting=1;jiggle=2;" parent="1" vertex="1">
          <mxGeometry x="1713" y="-208" width="172" height="71" as="geometry" />
        </mxCell>
        <mxCell id="node7" value="&lt;p style=&quot;margin:0px;margin-top:4px;text-align:center;&quot;&gt;&lt;b&gt;Book&lt;/b&gt;&lt;/p&gt;&lt;hr size=&quot;1&quot;/&gt;&lt;p style=&quot;margin:0 0 0 4px;line-height:1.6;&quot;&gt;+ Book(String, String, int, String, int, float, String, String, String, int): &lt;/p&gt;&lt;hr size=&quot;1&quot;/&gt;&lt;p style=&quot;margin:0 0 0 4px;line-height:1.6;&quot;&gt;- gender: TGender&lt;br/&gt;- review: String&lt;br/&gt;- soldCopies: int&lt;/p&gt;&lt;hr size=&quot;1&quot;/&gt;&lt;p style=&quot;margin:0 0 0 4px;line-height:1.6;&quot;&gt;+ setDate(String): Calendar&lt;br/&gt;+ toString(): String&lt;/p&gt;&lt;hr size=&quot;1&quot;/&gt;&lt;p style=&quot;margin:0 0 0 4px;line-height:1.6;&quot;&gt; date: Calendar&lt;br/&gt; gender: String&lt;br/&gt; id: String&lt;br/&gt; image: String&lt;br/&gt; name: String&lt;br/&gt; pages: int&lt;br/&gt; pagesRead: int&lt;br/&gt; price: float&lt;br/&gt; review: String&lt;br/&gt; soldCopies: int&lt;/p&gt;" style="verticalAlign=top;align=left;overflow=fill;fontSize=14;fontFamily=Helvetica;html=1;rounded=0;shadow=0;comic=0;labelBackgroundColor=none;strokeWidth=1;sketch=1;curveFitting=1;jiggle=2;" parent="1" vertex="1">
          <mxGeometry x="685" y="126" width="523" height="420" as="geometry" />
        </mxCell>
        <mxCell id="node12" value="&lt;p style=&quot;margin:0px;margin-top:4px;text-align:center;&quot;&gt;&lt;b&gt;Fetch&lt;/b&gt;&lt;/p&gt;&lt;hr size=&quot;1&quot;/&gt;&lt;p style=&quot;margin:0 0 0 4px;line-height:1.6;&quot;&gt;+ Fetch(): &lt;/p&gt;&lt;hr size=&quot;1&quot;/&gt;&lt;p style=&quot;margin:0 0 0 4px;line-height:1.6;&quot;&gt; data: String[]&lt;/p&gt;" style="verticalAlign=top;align=left;overflow=fill;fontSize=14;fontFamily=Helvetica;html=1;rounded=0;shadow=0;comic=0;labelBackgroundColor=none;strokeWidth=1;sketch=1;curveFitting=1;jiggle=2;" parent="1" vertex="1">
          <mxGeometry x="1228" y="986.75" width="148" height="98.5" as="geometry" />
        </mxCell>
        <mxCell id="node8" value="&lt;p style=&quot;margin:0px;margin-top:4px;text-align:center;&quot;&gt;&lt;b&gt;Magazine&lt;/b&gt;&lt;/p&gt;&lt;hr size=&quot;1&quot;/&gt;&lt;p style=&quot;margin:0 0 0 4px;line-height:1.6;&quot;&gt;+ Magazine(String, String, int, String, int, float, String, String, int, int): &lt;/p&gt;&lt;hr size=&quot;1&quot;/&gt;&lt;p style=&quot;margin:0 0 0 4px;line-height:1.6;&quot;&gt;- category: TCategory&lt;br/&gt;- issuanceFrequency: int&lt;br/&gt;- subscriptions: int&lt;/p&gt;&lt;hr size=&quot;1&quot;/&gt;&lt;p style=&quot;margin:0 0 0 4px;line-height:1.6;&quot;&gt;+ setDate(String): Calendar&lt;br/&gt;+ toString(): String&lt;/p&gt;&lt;hr size=&quot;1&quot;/&gt;&lt;p style=&quot;margin:0 0 0 4px;line-height:1.6;&quot;&gt; category: String&lt;br/&gt; date: Calendar&lt;br/&gt; id: String&lt;br/&gt; image: String&lt;br/&gt; issuanceFrequency: int&lt;br/&gt; name: String&lt;br/&gt; pages: int&lt;br/&gt; pagesRead: int&lt;br/&gt; price: float&lt;br/&gt; subscriptions: int&lt;/p&gt;" style="verticalAlign=top;align=left;overflow=fill;fontSize=14;fontFamily=Helvetica;html=1;rounded=0;shadow=0;comic=0;labelBackgroundColor=none;strokeWidth=1;sketch=1;curveFitting=1;jiggle=2;" parent="1" vertex="1">
          <mxGeometry x="143" y="126" width="522" height="420" as="geometry" />
        </mxCell>
        <mxCell id="node10" value="&lt;p style=&quot;margin:0px;margin-top:4px;text-align:center;&quot;&gt;&lt;b&gt;PremiumUser&lt;/b&gt;&lt;/p&gt;&lt;hr size=&quot;1&quot;/&gt;&lt;p style=&quot;margin:0 0 0 4px;line-height:1.6;&quot;&gt;+ PremiumUser(String, String, Calendar): &lt;/p&gt;&lt;hr size=&quot;1&quot;/&gt;&lt;p style=&quot;margin:0 0 0 4px;line-height:1.6;&quot;&gt;- id: String&lt;br/&gt;- name: String&lt;br/&gt;- products: ArrayList&amp;lt;String&amp;gt;&lt;br/&gt;- registrationDate: Calendar&lt;/p&gt;&lt;hr size=&quot;1&quot;/&gt;&lt;p style=&quot;margin:0 0 0 4px;line-height:1.6;&quot;&gt;+ toString(): String&lt;/p&gt;&lt;hr size=&quot;1&quot;/&gt;&lt;p style=&quot;margin:0 0 0 4px;line-height:1.6;&quot;&gt; id: String&lt;br/&gt; name: String&lt;br/&gt; product: String&lt;br/&gt; products: ArrayList&amp;lt;String&amp;gt;&lt;br/&gt; registrationDate: Calendar&lt;/p&gt;" style="verticalAlign=top;align=left;overflow=fill;fontSize=14;fontFamily=Helvetica;html=1;rounded=0;shadow=0;comic=0;labelBackgroundColor=none;strokeWidth=1;sketch=1;curveFitting=1;jiggle=2;" parent="1" vertex="1">
          <mxGeometry x="1228" y="160" width="348" height="326" as="geometry" />
        </mxCell>
        <mxCell id="node5" value="&lt;p style=&quot;margin:0px;margin-top:4px;text-align:center;&quot;&gt;&lt;b&gt;Product&lt;/b&gt;&lt;/p&gt;&lt;hr size=&quot;1&quot;/&gt;&lt;p style=&quot;margin:0 0 0 4px;line-height:1.6;&quot;&gt;+ Product(String, String, int, String, int, float, String): &lt;/p&gt;&lt;hr size=&quot;1&quot;/&gt;&lt;p style=&quot;margin:0 0 0 4px;line-height:1.6;&quot;&gt;# date: Calendar&lt;br/&gt;# id: String&lt;br/&gt;# image: String&lt;br/&gt;# name: String&lt;br/&gt;# pages: int&lt;br/&gt;# pagesRead: int&lt;br/&gt;# price: float&lt;/p&gt;&lt;hr size=&quot;1&quot;/&gt;&lt;p style=&quot;margin:0 0 0 4px;line-height:1.6;&quot;&gt;+ compareTo(Product): int&lt;br/&gt;~ getCalendar(String): Calendar&lt;br/&gt;+ setDate(String): Calendar&lt;/p&gt;&lt;hr size=&quot;1&quot;/&gt;&lt;p style=&quot;margin:0 0 0 4px;line-height:1.6;&quot;&gt; date: Calendar&lt;br/&gt; id: String&lt;br/&gt; image: String&lt;br/&gt; name: String&lt;br/&gt; pages: int&lt;br/&gt; pagesRead: int&lt;br/&gt; price: float&lt;/p&gt;" style="verticalAlign=top;align=left;overflow=fill;fontSize=14;fontFamily=Helvetica;html=1;rounded=0;shadow=0;comic=0;labelBackgroundColor=none;strokeWidth=1;sketch=1;curveFitting=1;jiggle=2;" parent="1" vertex="1">
          <mxGeometry x="-278" y="-430" width="500" height="484" as="geometry" />
        </mxCell>
        <mxCell id="node0" value="&lt;p style=&quot;margin:0px;margin-top:4px;text-align:center;&quot;&gt;&lt;b&gt;ReadX&lt;/b&gt;&lt;/p&gt;&lt;hr size=&quot;1&quot;/&gt;&lt;p style=&quot;margin:0 0 0 4px;line-height:1.6;&quot;&gt;+ ReadX(): &lt;/p&gt;&lt;hr size=&quot;1&quot;/&gt;&lt;p style=&quot;margin:0 0 0 4px;line-height:1.6;&quot;&gt;+ BuyBook(): void&lt;br/&gt;+ GenerateReport(): void&lt;br/&gt;+ GenerateTestElements(): void&lt;br/&gt;+ ManageBook(): void&lt;br/&gt;+ ManageMagazine(): void&lt;br/&gt;+ ManageProducts(): void&lt;br/&gt;+ Menu(): void&lt;br/&gt;+ ReadMenu(String, int, boolean, int, String): void&lt;br/&gt;+ ReadingSession(): void&lt;br/&gt;+ RegisterUser(): void&lt;br/&gt;+ ReportMenu(): void&lt;br/&gt;+ ShowAllProducts(): void&lt;br/&gt;+ ShowUserProducts(): void&lt;br/&gt;+ ShowUsers(): void&lt;br/&gt;+ SubscribeMagazine(): void&lt;br/&gt;+ ValidateProductId(): String&lt;br/&gt;+ main(String[]): void&lt;br/&gt;+ print(Object): void&lt;/p&gt;" style="verticalAlign=top;align=left;overflow=fill;fontSize=14;fontFamily=Helvetica;html=1;rounded=0;shadow=0;comic=0;labelBackgroundColor=none;strokeWidth=1;sketch=1;curveFitting=1;jiggle=2;" parent="1" vertex="1">
          <mxGeometry x="241" y="1496" width="428" height="490" as="geometry" />
        </mxCell>
        <mxCell id="node11" value="&lt;p style=&quot;margin:0px;margin-top:4px;text-align:center;&quot;&gt;&lt;b&gt;ReadXController&lt;/b&gt;&lt;/p&gt;&lt;hr size=&quot;1&quot;/&gt;&lt;p style=&quot;margin:0 0 0 4px;line-height:1.6;&quot;&gt;+ ReadXController(): &lt;/p&gt;&lt;hr size=&quot;1&quot;/&gt;&lt;p style=&quot;margin:0 0 0 4px;line-height:1.6;&quot;&gt;- products: ArrayList&amp;lt;Product&amp;gt;&lt;/p&gt;&lt;hr size=&quot;1&quot;/&gt;&lt;p style=&quot;margin:0 0 0 4px;line-height:1.6;&quot;&gt;+ ActiveSubsByCategory(): String&lt;br/&gt;+ Advertisable(int): boolean&lt;br/&gt;+ BestGenderAndCategoryRead(): String&lt;br/&gt;+ BuyBook(String, String): String&lt;br/&gt;- GenRandomHex(): String&lt;br/&gt;+ GenerateTestElements(): String&lt;br/&gt;- GetCategory(int): String&lt;br/&gt;- GetGender(int): String&lt;br/&gt;+ ModifyBook(String, String, int, String, int, float, String, String, String, int): String&lt;br/&gt;+ ModifyMagazine(String, String, int, String, String, String, float, int, int, int): String&lt;br/&gt;+ OrderByDate(int): ArrayList&amp;lt;String&amp;gt;&lt;br/&gt;- OrderByPagesRead(): ArrayList&amp;lt;Product&amp;gt;&lt;br/&gt;+ RegisterBook(String, String, int, String, int, float, String, String, String, int): String&lt;br/&gt;+ RegisterMagazine(String, String, int, String, int, float, String, String, int, int): String&lt;br/&gt;+ RegisterUser(String, String, boolean): String&lt;br/&gt;+ RemoveBook(String): String&lt;br/&gt;+ RemoveMagazine(String): String&lt;br/&gt;+ ShowBooks(): String&lt;br/&gt;+ ShowMagazines(): String&lt;br/&gt;+ ShowUserProducts(String, int): String&lt;br/&gt;+ ShowUsers(): String&lt;br/&gt;+ SoldBooksByGender(): String&lt;br/&gt;+ SubscribeMagazine(String, String): String&lt;br/&gt;+ SummaryOfReadPages(): String&lt;br/&gt;+ Top5GenderAndCategoryRead(): String&lt;br/&gt;+ getBook(String): Book&lt;br/&gt;+ getProduct(String): Product&lt;br/&gt;+ getRegularUser(int): RegularUser&lt;br/&gt;+ getUser(int): User&lt;br/&gt;+ getUser(String): int&lt;/p&gt;&lt;hr size=&quot;1&quot;/&gt;&lt;p style=&quot;margin:0 0 0 4px;line-height:1.6;&quot;&gt; products: ArrayList&amp;lt;Product&amp;gt;&lt;/p&gt;" style="verticalAlign=top;align=left;overflow=fill;fontSize=14;fontFamily=Helvetica;html=1;rounded=0;shadow=0;comic=0;labelBackgroundColor=none;strokeWidth=1;sketch=1;curveFitting=1;jiggle=2;" parent="1" vertex="1">
          <mxGeometry x="177" y="618" width="556" height="828" as="geometry" />
        </mxCell>
        <mxCell id="node2" value="&lt;p style=&quot;margin:0px;margin-top:4px;text-align:center;&quot;&gt;&lt;b&gt;RegularUser&lt;/b&gt;&lt;/p&gt;&lt;hr size=&quot;1&quot;/&gt;&lt;p style=&quot;margin:0 0 0 4px;line-height:1.6;&quot;&gt;+ RegularUser(String, String, Calendar): &lt;/p&gt;&lt;hr size=&quot;1&quot;/&gt;&lt;p style=&quot;margin:0 0 0 4px;line-height:1.6;&quot;&gt;- id: String&lt;br/&gt;- magazineCount: int&lt;br/&gt;- name: String&lt;br/&gt;- products: ArrayList&amp;lt;String&amp;gt;&lt;br/&gt;- registrationDate: Calendar&lt;/p&gt;&lt;hr size=&quot;1&quot;/&gt;&lt;p style=&quot;margin:0 0 0 4px;line-height:1.6;&quot;&gt;+ showAds(): String&lt;br/&gt;+ toString(): String&lt;/p&gt;&lt;hr size=&quot;1&quot;/&gt;&lt;p style=&quot;margin:0 0 0 4px;line-height:1.6;&quot;&gt; bookCount: int&lt;br/&gt; id: String&lt;br/&gt; magazineCount: int&lt;br/&gt; name: String&lt;br/&gt; product: String&lt;br/&gt; products: ArrayList&amp;lt;String&amp;gt;&lt;br/&gt; registrationDate: Calendar&lt;/p&gt;" style="verticalAlign=top;align=left;overflow=fill;fontSize=14;fontFamily=Helvetica;html=1;rounded=0;shadow=0;comic=0;labelBackgroundColor=none;strokeWidth=1;sketch=1;curveFitting=1;jiggle=2;" parent="1" vertex="1">
          <mxGeometry x="1620" y="120" width="348" height="414" as="geometry" />
        </mxCell>
        <mxCell id="node3" value="&lt;p style=&quot;margin:0px;margin-top:4px;text-align:center;&quot;&gt;&lt;i&gt;&amp;lt;&amp;lt;enumeration&amp;gt;&amp;gt;&lt;/i&gt;&lt;br/&gt;&lt;b&gt;TCategory&lt;/b&gt;&lt;/p&gt;&lt;hr size=&quot;1&quot;/&gt;&lt;p style=&quot;margin:0 0 0 4px;line-height:1.6;&quot;&gt;+ TCategory(): &lt;/p&gt;&lt;hr size=&quot;1&quot;/&gt;&lt;p style=&quot;margin:0 0 0 4px;line-height:1.6;&quot;&gt;+ valueOf(String): TCategory&lt;br/&gt;+ values(): TCategory[]&lt;/p&gt;" style="verticalAlign=top;align=left;overflow=fill;fontSize=14;fontFamily=Helvetica;html=1;rounded=0;shadow=0;comic=0;labelBackgroundColor=none;strokeWidth=1;sketch=1;curveFitting=1;jiggle=2;" parent="1" vertex="1">
          <mxGeometry x="514" y="-233" width="244" height="133" as="geometry" />
        </mxCell>
        <mxCell id="node1" value="&lt;p style=&quot;margin:0px;margin-top:4px;text-align:center;&quot;&gt;&lt;i&gt;&amp;lt;&amp;lt;enumeration&amp;gt;&amp;gt;&lt;/i&gt;&lt;br/&gt;&lt;b&gt;TGender&lt;/b&gt;&lt;/p&gt;&lt;hr size=&quot;1&quot;/&gt;&lt;p style=&quot;margin:0 0 0 4px;line-height:1.6;&quot;&gt;+ TGender(): &lt;/p&gt;&lt;hr size=&quot;1&quot;/&gt;&lt;p style=&quot;margin:0 0 0 4px;line-height:1.6;&quot;&gt;+ valueOf(String): TGender&lt;br/&gt;+ values(): TGender[]&lt;/p&gt;" style="verticalAlign=top;align=left;overflow=fill;fontSize=14;fontFamily=Helvetica;html=1;rounded=0;shadow=0;comic=0;labelBackgroundColor=none;strokeWidth=1;sketch=1;curveFitting=1;jiggle=2;" parent="1" vertex="1">
          <mxGeometry x="884" y="-233" width="228" height="133" as="geometry" />
        </mxCell>
        <mxCell id="node6" value="&lt;p style=&quot;margin:0px;margin-top:4px;text-align:center;&quot;&gt;&lt;b&gt;User&lt;/b&gt;&lt;/p&gt;&lt;hr size=&quot;1&quot;/&gt;&lt;p style=&quot;margin:0 0 0 4px;line-height:1.6;&quot;&gt;+ User(): &lt;/p&gt;&lt;hr size=&quot;1&quot;/&gt;&lt;p style=&quot;margin:0 0 0 4px;line-height:1.6;&quot;&gt; id: String&lt;br/&gt; name: String&lt;br/&gt; product: String&lt;br/&gt; products: ArrayList&amp;lt;String&amp;gt;&lt;br/&gt; registrationDate: Calendar&lt;/p&gt;" style="verticalAlign=top;align=left;overflow=fill;fontSize=14;fontFamily=Helvetica;html=1;rounded=0;shadow=0;comic=0;labelBackgroundColor=none;strokeWidth=1;sketch=1;curveFitting=1;jiggle=2;" parent="1" vertex="1">
          <mxGeometry x="242" y="-280" width="252" height="189" as="geometry" />
        </mxCell>
        <mxCell id="node4" value="&lt;p style=&quot;margin:0px;margin-top:4px;text-align:center;&quot;&gt;&lt;b&gt;Utils&lt;/b&gt;&lt;/p&gt;&lt;hr size=&quot;1&quot;/&gt;&lt;p style=&quot;margin:0 0 0 4px;line-height:1.6;&quot;&gt;+ Utils(): &lt;/p&gt;&lt;hr size=&quot;1&quot;/&gt;&lt;p style=&quot;margin:0 0 0 4px;line-height:1.6;&quot;&gt; currentDate: Calendar&lt;br/&gt; users: ArrayList&amp;lt;User&amp;gt;&lt;/p&gt;" style="verticalAlign=top;align=left;overflow=fill;fontSize=14;fontFamily=Helvetica;html=1;rounded=0;shadow=0;comic=0;labelBackgroundColor=none;strokeWidth=1;sketch=1;curveFitting=1;jiggle=2;" parent="1" vertex="1">
          <mxGeometry x="1486" y="979" width="212" height="114" as="geometry" />
        </mxCell>
        <mxCell id="edge0" value="" style="html=1;rounded=0;edgeStyle=orthogonalEdgeStyle;dashed=0;startArrow=none;endArrow=block;endSize=12;exitX=0.250;exitY=0.000;exitDx=0;exitDy=0;entryX=0.750;entryY=1.000;entryDx=0;entryDy=0;sketch=1;curveFitting=1;jiggle=2;labelBackgroundColor=none;fontColor=default;" parent="1" source="node7" target="node5" edge="1">
          <mxGeometry width="50" height="50" relative="1" as="geometry">
            <Array as="points">
              <mxPoint x="816" y="105" />
              <mxPoint x="446" y="105" />
              <mxPoint x="446" y="85" />
              <mxPoint x="97" y="85" />
            </Array>
          </mxGeometry>
        </mxCell>
        <mxCell id="edge9" value="" style="html=1;rounded=0;edgeStyle=orthogonalEdgeStyle;dashed=0;startArrow=diamondThinstartSize=12;endArrow=openThin;endSize=12;exitX=0.750;exitY=0.000;exitDx=0;exitDy=0;entryX=0.500;entryY=1.000;entryDx=0;entryDy=0;sketch=1;curveFitting=1;jiggle=2;labelBackgroundColor=none;fontColor=default;" parent="1" source="node7" target="node1" edge="1">
          <mxGeometry width="50" height="50" relative="1" as="geometry">
            <Array as="points">
              <mxPoint x="1077" y="105" />
              <mxPoint x="998" y="105" />
            </Array>
          </mxGeometry>
        </mxCell>
        <mxCell id="label54" value="1" style="edgeLabel;resizable=0;html=1;align=left;verticalAlign=top;rounded=0;sketch=1;curveFitting=1;jiggle=2;labelBackgroundColor=none;" parent="edge9" vertex="1" connectable="0">
          <mxGeometry x="1066" y="106" as="geometry" />
        </mxCell>
        <mxCell id="label58" value="1" style="edgeLabel;resizable=0;html=1;align=left;verticalAlign=top;rounded=0;sketch=1;curveFitting=1;jiggle=2;labelBackgroundColor=none;" parent="edge9" vertex="1" connectable="0">
          <mxGeometry x="987" y="-114" as="geometry" />
        </mxCell>
        <mxCell id="label59" value="gender" style="edgeLabel;resizable=0;html=1;align=left;verticalAlign=top;rounded=0;sketch=1;curveFitting=1;jiggle=2;labelBackgroundColor=none;" parent="edge9" vertex="1" connectable="0">
          <mxGeometry x="998" y="-114" as="geometry" />
        </mxCell>
        <mxCell id="edge1" value="" style="html=1;rounded=0;edgeStyle=orthogonalEdgeStyle;dashed=0;startArrow=none;endArrow=block;endSize=12;exitX=0.250;exitY=0.000;exitDx=0;exitDy=0;entryX=0.750;entryY=1.000;entryDx=0;entryDy=0;sketch=1;curveFitting=1;jiggle=2;labelBackgroundColor=none;fontColor=default;" parent="1" source="node8" target="node5" edge="1">
          <mxGeometry width="50" height="50" relative="1" as="geometry">
            <Array as="points">
              <mxPoint x="273" y="105" />
              <mxPoint x="446" y="105" />
              <mxPoint x="446" y="85" />
              <mxPoint x="97" y="85" />
            </Array>
          </mxGeometry>
        </mxCell>
        <mxCell id="edge12" value="" style="html=1;rounded=0;edgeStyle=orthogonalEdgeStyle;dashed=0;startArrow=diamondThinstartSize=12;endArrow=openThin;endSize=12;exitX=0.750;exitY=0.000;exitDx=0;exitDy=0;entryX=0.500;entryY=1.000;entryDx=0;entryDy=0;sketch=1;curveFitting=1;jiggle=2;labelBackgroundColor=none;fontColor=default;" parent="1" source="node8" target="node3" edge="1">
          <mxGeometry width="50" height="50" relative="1" as="geometry">
            <Array as="points">
              <mxPoint x="534" y="95" />
              <mxPoint x="636" y="95" />
            </Array>
          </mxGeometry>
        </mxCell>
        <mxCell id="label72" value="1" style="edgeLabel;resizable=0;html=1;align=left;verticalAlign=top;rounded=0;sketch=1;curveFitting=1;jiggle=2;labelBackgroundColor=none;" parent="edge12" vertex="1" connectable="0">
          <mxGeometry x="523" y="101" as="geometry" />
        </mxCell>
        <mxCell id="label76" value="1" style="edgeLabel;resizable=0;html=1;align=left;verticalAlign=top;rounded=0;sketch=1;curveFitting=1;jiggle=2;labelBackgroundColor=none;" parent="edge12" vertex="1" connectable="0">
          <mxGeometry x="625" y="-115" as="geometry" />
        </mxCell>
        <mxCell id="label77" value="category" style="edgeLabel;resizable=0;html=1;align=left;verticalAlign=top;rounded=0;sketch=1;curveFitting=1;jiggle=2;labelBackgroundColor=none;" parent="edge12" vertex="1" connectable="0">
          <mxGeometry x="636" y="-115" as="geometry" />
        </mxCell>
        <mxCell id="edge3" value="" style="html=1;rounded=0;edgeStyle=orthogonalEdgeStyle;dashed=0;startArrow=none;endArrow=block;endSize=12;exitX=0.500;exitY=0.000;exitDx=0;exitDy=0;entryX=0.750;entryY=1.000;entryDx=0;entryDy=0;sketch=1;curveFitting=1;jiggle=2;labelBackgroundColor=none;fontColor=default;" parent="1" source="node10" target="node6" edge="1">
          <mxGeometry width="50" height="50" relative="1" as="geometry">
            <Array as="points">
              <mxPoint x="1402" y="105" />
              <mxPoint x="1575" y="105" />
              <mxPoint x="1575" y="75" />
              <mxPoint x="431" y="75" />
            </Array>
          </mxGeometry>
        </mxCell>
        <mxCell id="edge8" value="" style="html=1;rounded=0;edgeStyle=orthogonalEdgeStyle;dashed=1;startArrow=none;endArrow=openThin;endSize=12;exitX=0.750;exitY=0.000;exitDx=0;exitDy=0;entryX=0.750;entryY=1.000;entryDx=0;entryDy=0;sketch=1;curveFitting=1;jiggle=2;labelBackgroundColor=none;fontColor=default;" parent="1" source="node0" target="node11" edge="1">
          <mxGeometry width="50" height="50" relative="1" as="geometry">
            <Array as="points">
              <mxPoint x="562" y="1471" />
              <mxPoint x="594" y="1471" />
            </Array>
          </mxGeometry>
        </mxCell>
        <mxCell id="label50" value="Â«createÂ»" style="edgeLabel;resizable=0;html=1;align=left;verticalAlign=top;rounded=0;sketch=1;curveFitting=1;jiggle=2;labelBackgroundColor=none;" parent="edge8" vertex="1" connectable="0">
          <mxGeometry x="542" y="1449" as="geometry" />
        </mxCell>
        <mxCell id="edge14" value="" style="html=1;rounded=0;edgeStyle=orthogonalEdgeStyle;dashed=0;startArrow=diamondThinstartSize=12;endArrow=openThin;endSize=12;exitX=0.250;exitY=0.000;exitDx=0;exitDy=0;entryX=0.250;entryY=1.000;entryDx=0;entryDy=0;sketch=1;curveFitting=1;jiggle=2;labelBackgroundColor=none;fontColor=default;" parent="1" source="node0" target="node11" edge="1">
          <mxGeometry width="50" height="50" relative="1" as="geometry">
            <Array as="points">
              <mxPoint x="348" y="1471" />
              <mxPoint x="316" y="1471" />
            </Array>
          </mxGeometry>
        </mxCell>
        <mxCell id="label84" value="1" style="edgeLabel;resizable=0;html=1;align=left;verticalAlign=top;rounded=0;sketch=1;curveFitting=1;jiggle=2;labelBackgroundColor=none;" parent="edge14" vertex="1" connectable="0">
          <mxGeometry x="337" y="1471" as="geometry" />
        </mxCell>
        <mxCell id="label88" value="1" style="edgeLabel;resizable=0;html=1;align=left;verticalAlign=top;rounded=0;sketch=1;curveFitting=1;jiggle=2;labelBackgroundColor=none;" parent="edge14" vertex="1" connectable="0">
          <mxGeometry x="305" y="1451" as="geometry" />
        </mxCell>
        <mxCell id="label89" value="controller" style="edgeLabel;resizable=0;html=1;align=left;verticalAlign=top;rounded=0;sketch=1;curveFitting=1;jiggle=2;labelBackgroundColor=none;" parent="edge14" vertex="1" connectable="0">
          <mxGeometry x="316" y="1451" as="geometry" />
        </mxCell>
        <mxCell id="edge15" value="" style="html=1;rounded=0;edgeStyle=orthogonalEdgeStyle;dashed=1;startArrow=none;endArrow=openThin;endSize=12;exitX=0.750;exitY=0.000;exitDx=0;exitDy=0;entryX=0.500;entryY=1.000;entryDx=0;entryDy=0;sketch=1;curveFitting=1;jiggle=2;labelBackgroundColor=none;fontColor=default;" parent="1" source="node11" target="node7" edge="1">
          <mxGeometry width="50" height="50" relative="1" as="geometry">
            <Array as="points">
              <mxPoint x="594" y="597" />
              <mxPoint x="1085" y="597" />
              <mxPoint x="1085" y="567" />
              <mxPoint x="946" y="567" />
            </Array>
          </mxGeometry>
        </mxCell>
        <mxCell id="label92" value="Â«createÂ»" style="edgeLabel;resizable=0;html=1;align=left;verticalAlign=top;rounded=0;sketch=1;curveFitting=1;jiggle=2;labelBackgroundColor=none;" parent="edge15" vertex="1" connectable="0">
          <mxGeometry x="1040" y="570" as="geometry" />
        </mxCell>
        <mxCell id="edge7" value="" style="html=1;rounded=0;edgeStyle=orthogonalEdgeStyle;dashed=1;startArrow=none;endArrow=openThin;endSize=12;exitX=0.750;exitY=0.000;exitDx=0;exitDy=0;entryX=0.500;entryY=1.000;entryDx=0;entryDy=0;sketch=1;curveFitting=1;jiggle=2;labelBackgroundColor=none;fontColor=default;" parent="1" source="node11" target="node8" edge="1">
          <mxGeometry width="50" height="50" relative="1" as="geometry">
            <Array as="points">
              <mxPoint x="594" y="597" />
              <mxPoint x="1085" y="597" />
              <mxPoint x="1085" y="567" />
              <mxPoint x="404" y="567" />
            </Array>
          </mxGeometry>
        </mxCell>
        <mxCell id="edge13" value="" style="html=1;rounded=0;edgeStyle=orthogonalEdgeStyle;dashed=1;startArrow=none;endArrow=openThin;endSize=12;exitX=0.750;exitY=0.000;exitDx=0;exitDy=0;entryX=0.500;entryY=1.000;entryDx=0;entryDy=0;sketch=1;curveFitting=1;jiggle=2;labelBackgroundColor=none;fontColor=default;" parent="1" source="node11" target="node10" edge="1">
          <mxGeometry width="50" height="50" relative="1" as="geometry">
            <Array as="points">
              <mxPoint x="594" y="597" />
              <mxPoint x="1085" y="597" />
              <mxPoint x="1085" y="577" />
              <mxPoint x="1402" y="577" />
            </Array>
          </mxGeometry>
        </mxCell>
        <mxCell id="edge5" value="" style="html=1;rounded=0;edgeStyle=orthogonalEdgeStyle;dashed=0;startArrow=diamondThinstartSize=12;endArrow=openThin;endSize=12;exitX=0.250;exitY=0.000;exitDx=0;exitDy=0;entryX=0.250;entryY=1.000;entryDx=0;entryDy=0;sketch=1;curveFitting=1;jiggle=2;labelBackgroundColor=none;fontColor=default;" parent="1" source="node11" target="node5" edge="1">
          <mxGeometry width="50" height="50" relative="1" as="geometry">
            <Array as="points">
              <mxPoint x="316" y="597" />
              <mxPoint x="-153" y="597" />
              <mxPoint x="-153" y="587" />
              <mxPoint x="-191" y="587" />
              <mxPoint x="-191" y="105" />
              <mxPoint x="-153" y="105" />
            </Array>
          </mxGeometry>
        </mxCell>
        <mxCell id="label34" value="*" style="edgeLabel;resizable=0;html=1;align=left;verticalAlign=top;rounded=0;sketch=1;curveFitting=1;jiggle=2;labelBackgroundColor=none;" parent="edge5" vertex="1" connectable="0">
          <mxGeometry x="-162" y="59" as="geometry" />
        </mxCell>
        <mxCell id="label35" value="products" style="edgeLabel;resizable=0;html=1;align=left;verticalAlign=top;rounded=0;sketch=1;curveFitting=1;jiggle=2;labelBackgroundColor=none;" parent="edge5" vertex="1" connectable="0">
          <mxGeometry x="-153" y="59" as="geometry" />
        </mxCell>
        <mxCell id="edge16" value="" style="html=1;rounded=0;edgeStyle=orthogonalEdgeStyle;dashed=1;startArrow=none;endArrow=openThin;endSize=12;exitX=0.750;exitY=0.000;exitDx=0;exitDy=0;entryX=0.500;entryY=1.000;entryDx=0;entryDy=0;sketch=1;curveFitting=1;jiggle=2;labelBackgroundColor=none;fontColor=default;" parent="1" source="node11" target="node2" edge="1">
          <mxGeometry width="50" height="50" relative="1" as="geometry">
            <Array as="points">
              <mxPoint x="594" y="597" />
              <mxPoint x="1090" y="597" />
              <mxPoint x="1090" y="587" />
              <mxPoint x="1794" y="587" />
            </Array>
          </mxGeometry>
        </mxCell>
        <mxCell id="edge6" value="" style="html=1;rounded=0;edgeStyle=orthogonalEdgeStyle;dashed=0;startArrow=diamondThinstartSize=12;endArrow=openThin;endSize=12;exitX=0.250;exitY=0.000;exitDx=0;exitDy=0;entryX=0.250;entryY=1.000;entryDx=0;entryDy=0;sketch=1;curveFitting=1;jiggle=2;labelBackgroundColor=none;fontColor=default;" parent="1" source="node11" target="node6" edge="1">
          <mxGeometry width="50" height="50" relative="1" as="geometry">
            <Array as="points">
              <mxPoint x="316" y="597" />
              <mxPoint x="-153" y="597" />
              <mxPoint x="-153" y="587" />
              <mxPoint x="132" y="587" />
              <mxPoint x="132" y="95" />
              <mxPoint x="305" y="95" />
            </Array>
          </mxGeometry>
        </mxCell>
        <mxCell id="label36" value="1" style="edgeLabel;resizable=0;html=1;align=left;verticalAlign=top;rounded=0;sketch=1;curveFitting=1;jiggle=2;labelBackgroundColor=none;" parent="edge6" vertex="1" connectable="0">
          <mxGeometry x="305" y="587" as="geometry" />
        </mxCell>
        <mxCell id="label40" value="*" style="edgeLabel;resizable=0;html=1;align=left;verticalAlign=top;rounded=0;sketch=1;curveFitting=1;jiggle=2;labelBackgroundColor=none;" parent="edge6" vertex="1" connectable="0">
          <mxGeometry x="296" y="-86" as="geometry" />
        </mxCell>
        <mxCell id="label41" value="users" style="edgeLabel;resizable=0;html=1;align=left;verticalAlign=top;rounded=0;sketch=1;curveFitting=1;jiggle=2;labelBackgroundColor=none;" parent="edge6" vertex="1" connectable="0">
          <mxGeometry x="305" y="-86" as="geometry" />
        </mxCell>
        <mxCell id="edge2" value="" style="html=1;rounded=0;edgeStyle=orthogonalEdgeStyle;dashed=1;startArrow=none;endArrow=block;endSize=12;exitX=0.750;exitY=0.000;exitDx=0;exitDy=0;entryX=0.500;entryY=1.001;entryDx=0;entryDy=0;sketch=1;curveFitting=1;jiggle=2;labelBackgroundColor=none;fontColor=default;" parent="1" source="node2" target="node9" edge="1">
          <mxGeometry width="50" height="50" relative="1" as="geometry">
            <Array as="points">
              <mxPoint x="1881" y="105" />
              <mxPoint x="1799" y="105" />
            </Array>
          </mxGeometry>
        </mxCell>
        <mxCell id="edge4" value="" style="html=1;rounded=0;edgeStyle=orthogonalEdgeStyle;dashed=0;startArrow=none;endArrow=block;endSize=12;exitX=0.250;exitY=0.000;exitDx=0;exitDy=0;entryX=0.750;entryY=1.000;entryDx=0;entryDy=0;sketch=1;curveFitting=1;jiggle=2;labelBackgroundColor=none;fontColor=default;" parent="1" source="node2" target="node6" edge="1">
          <mxGeometry width="50" height="50" relative="1" as="geometry">
            <Array as="points">
              <mxPoint x="1707" y="105" />
              <mxPoint x="1575" y="105" />
              <mxPoint x="1575" y="75" />
              <mxPoint x="431" y="75" />
            </Array>
          </mxGeometry>
        </mxCell>
        <mxCell id="edge11" value="" style="html=1;rounded=0;edgeStyle=orthogonalEdgeStyle;dashed=1;startArrow=none;endArrow=openThin;endSize=12;exitX=0.500;exitY=0.000;exitDx=0;exitDy=0;entryX=0.500;entryY=1.000;entryDx=0;entryDy=0;sketch=1;curveFitting=1;jiggle=2;labelBackgroundColor=none;fontColor=default;" parent="1" source="node4" target="node10" edge="1">
          <mxGeometry width="50" height="50" relative="1" as="geometry">
            <Array as="points">
              <mxPoint x="1592" y="567" />
              <mxPoint x="1402" y="567" />
            </Array>
          </mxGeometry>
        </mxCell>
        <mxCell id="label68" value="Â«createÂ»" style="edgeLabel;resizable=0;html=1;align=left;verticalAlign=top;rounded=0;sketch=1;curveFitting=1;jiggle=2;labelBackgroundColor=none;" parent="edge11" vertex="1" connectable="0">
          <mxGeometry x="1471" y="547" as="geometry" />
        </mxCell>
        <mxCell id="edge10" value="" style="html=1;rounded=0;edgeStyle=orthogonalEdgeStyle;dashed=1;startArrow=none;endArrow=openThin;endSize=12;exitX=0.500;exitY=0.000;exitDx=0;exitDy=0;entryX=0.500;entryY=1.000;entryDx=0;entryDy=0;sketch=1;curveFitting=1;jiggle=2;labelBackgroundColor=none;fontColor=default;" parent="1" source="node4" target="node2" edge="1">
          <mxGeometry width="50" height="50" relative="1" as="geometry">
            <Array as="points">
              <mxPoint x="1592" y="597" />
              <mxPoint x="1794" y="597" />
            </Array>
          </mxGeometry>
        </mxCell>
        <mxCell id="label62" value="Â«createÂ»" style="edgeLabel;resizable=0;html=1;align=left;verticalAlign=top;rounded=0;sketch=1;curveFitting=1;jiggle=2;labelBackgroundColor=none;" parent="edge10" vertex="1" connectable="0">
          <mxGeometry x="1667" y="577" as="geometry" />
        </mxCell>
      </root>
    </mxGraphModel>
  </diagram>
</mxfile>
